# xmcd
#
# Track frame offsets: 
#        150
#        10805
#        22580
#        33233
#        43306
#        56029
#        69794
#        82363
#        93738
#        104276
#        115890
#        126300
#        135391
#        145751
#        155954
#        166436
#        176936
#        185252
#        194767
#        205361
#        215713
#        225787
#        240261
#        250944
#        265218
#        274791
#        289639
#        315378
#        325738
#        338366
#
# Disc length: 4715 seconds
#
# Revision: 0
# Processed by: cddbd v1.5.2PL0 Copyright (c) Steve Scherf et al.
# Submitted via: ExactAudioCopy v1.1
#
DISCID=b112691e
DTITLE=Marty Robbins - El Paso-The Marty Robbins Story 1952-60_CD2
DYEAR=2012
DGENRE=Country
TTITLE0=Pain And Misery
TTITLE1=It Looks Like I'm Just In Your Way
TTITLE2=This Broken Heart Of Mine
TTITLE3=Mean Mama Blues
TTITLE4=Mr Teardrop
TTITLE5=Respectfully Miss Brooks
TTITLE6=You Don't Owe Me A Thing
TTITLE7=Long Gone Lonesome Blues
TTITLE8=Grown Up Tears
TTITLE9=Lovesick Blues
TTITLE10=I Hang My Head And Cry
TTITLE11=Moanin' The Blues
TTITLE12=I'll Step Aside
TTITLE13=All The World Is Lonely Now
TTITLE14=Bouquet Of Roses
TTITLE15=Sittin' In A Treehouse
TTITLE16=Nothing But Sweet Lies
TTITLE17=Oh How I Miss You (Since You Went Away)
TTITLE18=Shackles And Chains
TTITLE19=Then I Turned And Slowly Walked Away
TTITLE20=Running Gun
TTITLE21=Cool Water
TTITLE22=Billy The Kid
TTITLE23=The Master's Call
TTITLE24=Saddle Tramp
TTITLE25=Ride Cowboy Ride
TTITLE26=San Angelo
TTITLE27=Prairie Fire
TTITLE28=Streets Of Laredo
TTITLE29=I've Got Use For The Women
EXTD=
EXTT0=
EXTT1=
EXTT2=
EXTT3=
EXTT4=
EXTT5=
EXTT6=
EXTT7=
EXTT8=
EXTT9=
EXTT10=
EXTT11=
EXTT12=
EXTT13=
EXTT14=
EXTT15=
EXTT16=
EXTT17=
EXTT18=
EXTT19=
EXTT20=
EXTT21=
EXTT22=
EXTT23=
EXTT24=
EXTT25=
EXTT26=
EXTT27=
EXTT28=
EXTT29=
PLAYORDER=
